<svg width="125" height="48" viewBox="0 0 125 48" fill="none" xmlns="http://www.w3.org/2000/svg">
<path d="M7.36 36.4C5.22667 36.4 3.61333 35.8 2.52 34.6C1.42667 33.3733 0.88 31.6267 0.88 29.36V27.76H5.04V29.68C5.04 31.4933 5.8 32.4 7.32 32.4C8.06667 32.4 8.62667 32.1867 9 31.76C9.4 31.3067 9.6 30.5867 9.6 29.6C9.6 28.4267 9.33333 27.4 8.8 26.52C8.26667 25.6133 7.28 24.5333 5.84 23.28C4.02667 21.68 2.76 20.24 2.04 18.96C1.32 17.6533 0.96 16.1867 0.96 14.56C0.96 12.3467 1.52 10.64 2.64 9.44C3.76 8.21333 5.38667 7.6 7.52 7.6C9.62667 7.6 11.2133 8.21333 12.28 9.44C13.3733 10.64 13.92 12.3733 13.92 14.64V15.8H9.76V14.36C9.76 13.4 9.57333 12.7067 9.2 12.28C8.82667 11.8267 8.28 11.6 7.56 11.6C6.09333 11.6 5.36 12.4933 5.36 14.28C5.36 15.2933 5.62667 16.24 6.16 17.12C6.72 18 7.72 19.0667 9.16 20.32C11 21.92 12.2667 23.3733 12.96 24.68C13.6533 25.9867 14 27.52 14 29.28C14 31.5733 13.4267 33.3333 12.28 34.56C11.16 35.7867 9.52 36.4 7.36 36.4ZM22.8828 36.4C20.7228 36.4 19.0695 35.7867 17.9228 34.56C16.7761 33.3333 16.2028 31.6 16.2028 29.36V14.64C16.2028 12.4 16.7761 10.6667 17.9228 9.44C19.0695 8.21333 20.7228 7.6 22.8828 7.6C25.0428 7.6 26.6961 8.21333 27.8428 9.44C28.9895 10.6667 29.5628 12.4 29.5628 14.64V29.36C29.5628 31.6 28.9895 33.3333 27.8428 34.56C26.6961 35.7867 25.0428 36.4 22.8828 36.4ZM22.8828 32.4C24.4028 32.4 25.1628 31.48 25.1628 29.64V14.36C25.1628 12.52 24.4028 11.6 22.8828 11.6C21.3628 11.6 20.6028 12.52 20.6028 14.36V29.64C20.6028 31.48 21.3628 32.4 22.8828 32.4ZM32.5384 8H36.9384V32H44.1784V36H32.5384V8ZM46.2884 8H50.6884V36H46.2884V8ZM60.1838 36.4C58.0771 36.4 56.4638 35.8 55.3438 34.6C54.2504 33.4 53.7038 31.7067 53.7038 29.52V14.48C53.7038 12.2933 54.2504 10.6 55.3438 9.4C56.4638 8.2 58.0771 7.6 60.1838 7.6C62.2904 7.6 63.8904 8.2 64.9838 9.4C66.1038 10.6 66.6638 12.2933 66.6638 14.48V17.44H62.5038V14.2C62.5038 12.4667 61.7704 11.6 60.3038 11.6C58.8371 11.6 58.1038 12.4667 58.1038 14.2V29.84C58.1038 31.5467 58.8371 32.4 60.3038 32.4C61.7704 32.4 62.5038 31.5467 62.5038 29.84V25.56H66.6638V29.52C66.6638 31.7067 66.1038 33.4 64.9838 34.6C63.8904 35.8 62.2904 36.4 60.1838 36.4ZM94.9213 8H101.641C103.828 8 105.468 8.58667 106.561 9.76C107.655 10.9333 108.201 12.6533 108.201 14.92V29.08C108.201 31.3467 107.655 33.0667 106.561 34.24C105.468 35.4133 103.828 36 101.641 36H94.9213V8ZM101.561 32C102.281 32 102.828 31.7867 103.201 31.36C103.601 30.9333 103.801 30.24 103.801 29.28V14.72C103.801 13.76 103.601 13.0667 103.201 12.64C102.828 12.2133 102.281 12 101.561 12H99.3213V32H101.561ZM111.171 8H123.171V12H115.571V19.4H121.611V23.4H115.571V32H123.171V36H111.171V8Z" fill="#2B3641"/>
<path d="M78.2253 6.23148C80.7629 5.97505 82.8326 6.0688 84.2125 7.13763L89.14 16.9925L85.6042 20.8357L78.2253 6.23148Z" fill="url(#paint0_linear_1_16)"/>
<path d="M89.14 16.9925C90.5315 19.4703 91.1072 20.781 90.6773 21.839C90.6773 21.839 88.515 25.8811 87.982 27.2785C87.449 28.6759 86.4336 28.5426 84.2618 28.5222L89.14 16.9925Z" fill="url(#paint1_linear_1_16)"/>
<path d="M87.3905 16.3466L89.14 16.9925L84.3744 28.3684C83.1399 28.2543 82.9909 28.061 82.5297 27.7535L87.3905 16.3466Z" fill="url(#paint2_linear_1_16)"/>
<path d="M85.1598 36.7685C82.6221 37.025 80.5524 36.9312 79.1726 35.8624L74.245 26.0075L77.7808 22.1643L85.1598 36.7685Z" fill="url(#paint3_linear_1_16)"/>
<path d="M74.245 26.0075C72.8535 23.5297 72.2779 22.219 72.7077 21.161C72.7077 21.161 74.8701 17.1189 75.4031 15.7215C75.936 14.3241 76.9514 14.4574 79.1233 14.4778L74.245 26.0075Z" fill="url(#paint4_linear_1_16)"/>
<path d="M75.9945 26.6534L74.245 26.0075L79.0106 14.6316C80.2452 14.7457 80.3942 14.939 80.8554 15.2465L75.9945 26.6534Z" fill="url(#paint5_linear_1_16)"/>
<defs>
<linearGradient id="paint0_linear_1_16" x1="80.4069" y1="5.12348" x2="87.8163" y2="19.7122" gradientUnits="userSpaceOnUse">
<stop offset="0.219441" stop-color="#FF7A00" stop-opacity="0.51"/>
<stop offset="0.938786" stop-color="#FF7A00"/>
</linearGradient>
<linearGradient id="paint1_linear_1_16" x1="90.7625" y1="17.816" x2="85.1103" y2="28.9528" gradientUnits="userSpaceOnUse">
<stop offset="0.541613" stop-color="#FF7A00"/>
<stop offset="1" stop-color="#FF7A00" stop-opacity="0"/>
</linearGradient>
<linearGradient id="paint2_linear_1_16" x1="88.1414" y1="16.5811" x2="83.0318" y2="28.9824" gradientUnits="userSpaceOnUse">
<stop offset="0.520388" stop-color="#FF7A00"/>
<stop offset="1" stop-color="#FF7A00" stop-opacity="0"/>
</linearGradient>
<linearGradient id="paint3_linear_1_16" x1="82.9782" y1="37.8765" x2="75.5687" y2="23.2878" gradientUnits="userSpaceOnUse">
<stop offset="0.219441" stop-color="#FF7A00" stop-opacity="0.51"/>
<stop offset="0.938786" stop-color="#FF7A00"/>
</linearGradient>
<linearGradient id="paint4_linear_1_16" x1="72.6225" y1="25.184" x2="78.2747" y2="14.0472" gradientUnits="userSpaceOnUse">
<stop offset="0.541613" stop-color="#FF7A00"/>
<stop offset="1" stop-color="#FF7A00" stop-opacity="0"/>
</linearGradient>
<linearGradient id="paint5_linear_1_16" x1="75.2436" y1="26.4189" x2="80.3532" y2="14.0176" gradientUnits="userSpaceOnUse">
<stop offset="0.520388" stop-color="#FF7A00"/>
<stop offset="1" stop-color="#FF7A00" stop-opacity="0"/>
</linearGradient>
</defs>
</svg>
